<svg width="36" height="36" viewBox="0 0 36 36" fill="none" xmlns="http://www.w3.org/2000/svg">
<path d="M27.5188 27.0645C27.5188 27.0645 23.7044 25.7022 17.7102 25.7022C11.716 25.7022 7.90139 27.0645 7.90139 27.0645V8.53704H8.1741C8.1741 8.53704 9.8088 24.8846 17.7102 24.8846C25.6116 24.8846 27.2463 8.53704 27.2463 8.53704H27.5188V27.0645ZM17.7102 -1.90735e-05C7.90139 -1.90735e-05 0 7.99222 0 17.8008C0 27.6094 7.99221 35.6016 17.8008 35.6016C27.6096 35.6016 35.6016 27.6094 35.6016 17.8008C35.6016 7.99222 27.5188 -1.90735e-05 17.7102 -1.90735e-05Z" fill="white"/>
</svg>